<svg xmlns="http://www.w3.org/2000/svg" viewBox="0 0 32 32" fill="none">
  <!-- Open book -->
  <rect x="2" y="7" width="13" height="18" rx="2" fill="#16a34a"/>
  <rect x="17" y="7" width="13" height="18" rx="2" fill="#16a34a"/>
  <!-- Spine line -->
  <rect x="15" y="7" width="2" height="18" fill="#14532d"/>
  <!-- Left page lines -->
  <rect x="5" y="12" width="7" height="1.5" rx="0.75" fill="white" opacity="0.7"/>
  <rect x="5" y="15.5" width="7" height="1.5" rx="0.75" fill="white" opacity="0.7"/>
  <rect x="5" y="19" width="5" height="1.5" rx="0.75" fill="white" opacity="0.7"/>
  <!-- Right page lines -->
  <rect x="20" y="12" width="7" height="1.5" rx="0.75" fill="white" opacity="0.7"/>
  <rect x="20" y="15.5" width="7" height="1.5" rx="0.75" fill="white" opacity="0.7"/>
  <rect x="20" y="19" width="5" height="1.5" rx="0.75" fill="white" opacity="0.7"/>
  <!-- Download arrow badge -->
  <circle cx="24" cy="24" r="7" fill="#0f172a"/>
  <path d="M24 19v7M21 23l3 3 3-3" stroke="#16a34a" stroke-width="2" stroke-linecap="round" stroke-linejoin="round"/>
  <line x1="21" y1="26.5" x2="27" y2="26.5" stroke="#16a34a" stroke-width="2" stroke-linecap="round"/>
</svg>
